<svg width="19" height="19" viewBox="0 0 19 19" fill="none" xmlns="http://www.w3.org/2000/svg">
<path d="M18.2343 12.6699L13.052 9.4999L18.2341 6.32991C18.3233 6.27528 18.3872 6.18752 18.4116 6.08575C18.4361 5.98398 18.4191 5.87669 18.3647 5.78755L16.8419 3.29838C16.7285 3.11259 16.4853 3.05402 16.2995 3.16762L11.3527 6.19383V0.394449C11.3527 0.176713 11.176 0 10.9583 0H8.04068C7.82295 0 7.64623 0.176713 7.64623 0.394449V6.19383L2.6992 3.16782C2.51302 3.05422 2.27043 3.11259 2.15683 3.29858L0.634046 5.78774C0.579612 5.87689 0.56265 5.98418 0.587106 6.08595C0.611562 6.18772 0.675464 6.27548 0.76461 6.33011L5.94693 9.4999L0.76461 12.6699C0.675464 12.7243 0.611562 12.8123 0.587106 12.9139C0.56265 13.0158 0.579612 13.1231 0.634046 13.2123L2.15683 15.7012C2.27043 15.887 2.51302 15.9458 2.6992 15.8322L7.64623 12.806V18.6054C7.64623 18.8231 7.82295 18.9998 8.04068 18.9998H10.9583C11.176 18.9998 11.3527 18.8231 11.3527 18.6054V12.8062L16.2997 15.832C16.4855 15.9456 16.7287 15.887 16.8421 15.7014L18.3649 13.2123C18.4193 13.1231 18.4363 13.0158 18.4118 12.9141C18.3876 12.8121 18.3235 12.7245 18.2343 12.6699Z" fill="#E5C67A"/>
</svg>
