<svg width="20" height="19" viewBox="0 0 20 19" fill="none" xmlns="http://www.w3.org/2000/svg">
<g clip-path="url(#clip0)">
<path d="M19.8914 13.8701C19.8684 13.8205 19.8469 13.7794 19.827 13.7464C19.4974 13.1527 18.8674 12.424 17.9376 11.56L17.9179 11.5402L17.9081 11.5305L17.8981 11.5206H17.8881C17.4661 11.1183 17.1989 10.8478 17.087 10.7093C16.8822 10.4455 16.8363 10.1784 16.9482 9.90785C17.0273 9.70342 17.3243 9.2717 17.8386 8.61209C18.1091 8.26252 18.3233 7.98235 18.4815 7.77127C19.6225 6.25435 20.1172 5.28501 19.9654 4.86288L19.9065 4.76424C19.8669 4.70485 19.7647 4.65052 19.6 4.60097C19.4349 4.55153 19.224 4.54335 18.9667 4.57631L16.1177 4.59599C16.0716 4.57963 16.0057 4.58116 15.9198 4.60097C15.8341 4.62079 15.7912 4.63074 15.7912 4.63074L15.7416 4.65551L15.7022 4.68528C15.6692 4.70496 15.633 4.73957 15.5934 4.78905C15.554 4.83835 15.521 4.89622 15.4947 4.96215C15.1845 5.76015 14.8318 6.50208 14.436 7.18792C14.192 7.59688 13.9679 7.9513 13.7632 8.2514C13.5588 8.55139 13.3874 8.77241 13.249 8.91409C13.1104 9.05591 12.9853 9.16952 12.873 9.25534C12.7608 9.3412 12.6752 9.37748 12.6159 9.36421C12.5565 9.35094 12.5005 9.33777 12.4476 9.32461C12.3553 9.26522 12.2811 9.18445 12.2251 9.08224C12.1689 8.98003 12.1311 8.85137 12.1113 8.69639C12.0916 8.5413 12.08 8.40791 12.0766 8.29575C12.0736 8.18373 12.075 8.02528 12.0817 7.82085C12.0885 7.61632 12.0916 7.47793 12.0916 7.40538C12.0916 7.15473 12.0965 6.8827 12.1063 6.58923C12.1163 6.29575 12.1244 6.06322 12.1311 5.89192C12.1378 5.72044 12.141 5.53902 12.141 5.34776C12.141 5.1565 12.1293 5.0065 12.1063 4.89764C12.0836 4.78891 12.0487 4.68337 12.0027 4.58105C11.9564 4.47884 11.8887 4.39977 11.7999 4.34364C11.7109 4.28758 11.6002 4.24309 11.4685 4.21003C11.1189 4.13093 10.6738 4.08814 10.1329 4.08149C8.90631 4.06832 8.11816 4.14753 7.76862 4.319C7.63013 4.39145 7.50481 4.49044 7.39275 4.61567C7.27401 4.76081 7.25745 4.84002 7.34317 4.85304C7.73893 4.91233 8.0191 5.05415 8.18399 5.27836L8.24341 5.39717C8.28963 5.48289 8.33579 5.63465 8.38197 5.85225C8.42809 6.06984 8.45785 6.31055 8.47095 6.57422C8.50387 7.05574 8.50387 7.46792 8.47095 7.8108C8.43793 8.15383 8.40675 8.42086 8.37698 8.61212C8.34722 8.80339 8.30273 8.95837 8.24341 9.07704C8.18399 9.19575 8.14446 9.2683 8.12464 9.29464C8.10485 9.32097 8.08836 9.33757 8.07526 9.34408C7.98954 9.37693 7.90039 9.39366 7.80812 9.39366C7.71571 9.39366 7.60366 9.34744 7.47179 9.25507C7.33995 9.16269 7.20312 9.03581 7.0613 8.87421C6.91948 8.71257 6.75955 8.4867 6.58142 8.19655C6.40343 7.9064 6.21875 7.56348 6.02749 7.16779L5.86925 6.88083C5.77032 6.69622 5.63519 6.42742 5.46372 6.07466C5.29213 5.72176 5.14048 5.3804 5.00864 5.05065C4.95594 4.91216 4.87677 4.80672 4.77126 4.73416L4.72175 4.7044C4.68883 4.67807 4.63599 4.65011 4.56351 4.62031C4.49092 4.59055 4.41517 4.5692 4.33597 4.55607L1.62543 4.57575C1.34845 4.57575 1.16051 4.6385 1.06155 4.76382L1.02195 4.82311C1.00217 4.85613 0.992188 4.90886 0.992188 4.98145C0.992188 5.05401 1.01197 5.14305 1.05158 5.24849C1.44726 6.17846 1.87757 7.07535 2.34248 7.93928C2.8074 8.80321 3.21141 9.49913 3.55426 10.0264C3.89718 10.5541 4.24671 11.0521 4.60287 11.5202C4.95902 11.9885 5.19477 12.2886 5.31012 12.4204C5.4256 12.5525 5.51631 12.6512 5.58225 12.7172L5.82961 12.9546C5.98788 13.1129 6.22031 13.3025 6.52698 13.5233C6.83373 13.7444 7.17332 13.962 7.54593 14.1765C7.91862 14.3906 8.35218 14.5654 8.84686 14.7006C9.34147 14.8359 9.82288 14.8902 10.2912 14.864H11.4288C11.6595 14.8441 11.8343 14.7715 11.9532 14.6463L11.9925 14.5967C12.019 14.5573 12.0438 14.4962 12.0666 14.4139C12.0898 14.3315 12.1013 14.2406 12.1013 14.1419C12.0945 13.8583 12.1161 13.6028 12.1654 13.3753C12.2148 13.1479 12.271 12.9764 12.3338 12.8609C12.3966 12.7455 12.4675 12.6482 12.5464 12.5692C12.6255 12.4901 12.6818 12.4422 12.7149 12.4257C12.7477 12.4091 12.7739 12.3979 12.7937 12.3911C12.952 12.3384 13.1383 12.3894 13.3528 12.5446C13.5672 12.6995 13.7683 12.8909 13.9563 13.1183C14.1443 13.346 14.3701 13.6014 14.6339 13.8849C14.8978 14.1685 15.1286 14.3794 15.3264 14.5181L15.5241 14.6368C15.6562 14.716 15.8277 14.7885 16.0388 14.8545C16.2495 14.9204 16.4341 14.9369 16.5926 14.9039L19.125 14.8644C19.3754 14.8644 19.5703 14.823 19.7086 14.7407C19.8471 14.6582 19.9294 14.5674 19.9559 14.4686C19.9824 14.3697 19.9838 14.2576 19.961 14.1321C19.9375 14.007 19.9144 13.9195 19.8914 13.8701Z" fill="#4668C0"/>
</g>
<defs>
<clipPath id="clip0">
<rect width="18.9999" height="18.9999" fill="white" transform="translate(0.992188)"/>
</clipPath>
</defs>
</svg>
