<svg width="19" height="19" viewBox="0 0 19 19" fill="none" xmlns="http://www.w3.org/2000/svg">
<g clip-path="url(#clip0)">
<path d="M9.03963 0.0109879C4.02177 0.249909 0.0619699 4.42881 0.0771922 9.45234C0.081827 10.9824 0.451206 12.4265 1.10281 13.7026L0.102366 18.5589C0.0482471 18.8215 0.28517 19.0516 0.54613 18.9898L5.30471 17.8624C6.52727 18.4713 7.90046 18.8231 9.35376 18.8453C14.4825 18.9236 18.759 14.8513 18.9188 9.72443C19.0902 4.22883 14.5545 -0.251653 9.03963 0.0109879ZM14.7176 14.6405C13.3241 16.0341 11.4712 16.8016 9.50034 16.8016C8.34636 16.8016 7.24154 16.5427 6.21646 16.032L5.55377 15.7019L2.63627 16.3932L3.25038 13.412L2.9239 12.7727C2.39175 11.7305 2.12193 10.6036 2.12193 9.42317C2.12193 7.45232 2.88941 5.59947 4.283 4.20584C5.66414 2.8247 7.54725 2.04473 9.50048 2.04473C11.4713 2.04477 13.3241 2.81225 14.7177 4.20579C16.1113 5.59938 16.8788 7.45223 16.8788 9.42303C16.8788 11.3763 16.0988 13.2594 14.7176 14.6405Z" fill="#7AD06D"/>
<path d="M14.0741 11.4666L12.2488 10.9425C12.0088 10.8736 11.7504 10.9417 11.5756 11.1199L11.1292 11.5746C10.941 11.7664 10.6554 11.828 10.4063 11.7272C9.54285 11.3778 7.72654 9.76286 7.26269 8.95508C7.12887 8.72206 7.151 8.43075 7.31531 8.21814L7.705 7.71398C7.85767 7.51645 7.88989 7.25118 7.78892 7.02284L7.02099 5.286C6.83705 4.86999 6.30545 4.7489 5.95816 5.04262C5.44873 5.47348 4.84429 6.12822 4.77081 6.85358C4.64127 8.13244 5.18972 9.74455 7.26373 11.6803C9.65977 13.9166 11.5785 14.2121 12.8278 13.9094C13.5364 13.7378 14.1026 13.0498 14.46 12.4864C14.7037 12.1023 14.5113 11.5922 14.0741 11.4666Z" fill="#7AD06D"/>
</g>
<defs>
<clipPath id="clip0">
<rect width="18.9999" height="18.9999" fill="white"/>
</clipPath>
</defs>
</svg>
